<svg width="38" height="38" viewBox="0 0 38 38" fill="none" xmlns="http://www.w3.org/2000/svg">
<path d="M33.8759 14.4154C33.2291 13.2271 32.5634 11.9779 31.9798 10.7076C31.7923 10.3115 31.6259 9.9154 31.4595 9.5404C29.3759 4.97944 27.229 0.25 19.0215 0.25C10.8135 0.25 8.64568 4.97968 6.58348 9.5404C6.41708 9.9154 6.22958 10.3115 6.06317 10.7076C5.47957 11.9779 4.81397 13.2294 4.16705 14.4154C2.24987 17.9568 0.271729 21.625 0.271729 26.5C0.271729 30.9578 1.85609 34.1242 4.95923 35.875C7.87487 37.5203 11.8124 37.75 15.272 37.75H22.772C26.2314 37.75 30.1688 37.5203 33.0848 35.875C36.209 34.1031 37.7723 30.9578 37.7723 26.5C37.7723 21.625 35.7731 17.9596 33.877 14.4154H33.8759ZM26.5211 33.8332V22.7494H11.5211V33.8332C5.9383 33.2918 4.02112 31.2293 4.02112 26.4994C4.02112 22.583 5.62426 19.6252 7.45942 16.2082C8.12506 14.959 8.83522 13.6676 9.45862 12.2918C9.64612 11.8957 9.83362 11.4785 10 11.1035C11.9992 6.68788 13.2086 4.02052 19 4.02052C24.7914 4.02052 26.0008 6.6877 28 11.1035C28.1664 11.4996 28.3539 11.8957 28.5414 12.2918C29.1883 13.6676 29.875 14.959 30.5406 16.2082C32.3945 19.6254 33.9789 22.5832 33.9789 26.4994C34.0211 31.2502 32.1039 33.2914 26.5209 33.8332H26.5211Z" fill="#0C0C0C"/>
</svg>
